<svg width="258" height="258" xmlns="http://www.w3.org/2000/svg">

 <g>
  <title>Layer 1</title>
  <g id="svg_1" text-anchor="none" stroke-miterlimit="10" stroke-dashoffset="0" font-weight="none" font-size="none" font-family="none" fill-rule="evenodd" fill="#2d2926">
   <g id="svg_2">
    <g id="svg_3">
     <path id="svg_4" d="m129,0c-71.24418,0 -129,57.75582 -129,129c0,71.24418 57.75582,129 129,129c71.24418,0 129,-57.75582 129,-129c0,-71.24418 -57.75582,-129 -129,-129zm-45.13555,145.93473l14.06207,0l0,8.76997c-18.44637,3.47786 -26.0073,-7.10634 -26.0073,-27.21634c0,-17.08672 5.74532,-24.49566 14.21406,-24.49566c9.82839,0 11.49064,9.07257 11.49064,9.07257l25.10087,0l0,-22.98403c0,0 -11.94523,-11.03743 -37.49932,-11.03743c-24.34368,0 -45.96668,14.21269 -45.96668,49.44455c0,40.37198 23.89046,52.46919 49.74715,52.46919c18.90096,0 34.77727,-7.10771 34.77727,-7.10771l0,-46.26928l-39.91876,0l0,19.35417zm46.87448,31.4514l47.78092,0c13.00502,0 40.22136,-2.57006 40.22136,-27.36832c0,-19.35418 -22.22684,-22.83204 -25.4021,-23.28526c2.41944,0 25.4021,-1.81561 25.4021,-21.0178c0,-22.22821 -27.51894,-25.10087 -40.82519,-25.10087l-47.02647,0l0,24.94888l8.01415,0l0,46.87449l-8.16476,0l-0.00001,24.94888zm47.63031,-71.82337c5.44409,0 8.31675,3.17526 8.31675,6.50251c0,4.3843 -2.87266,6.65313 -8.31675,6.65313l-7.25833,0l0,-13.15564l7.25833,0zm0,30.84619c5.44409,0 8.31675,3.47786 8.31675,7.86353c0,4.9895 -2.87266,8.16476 -8.31675,8.16476l-7.25833,0l0,-16.0283l7.25833,0.00001z"/>
    </g>
   </g>
  </g>
 </g>
</svg>